<mxfile host="app.diagrams.net" modified="2024-07-07T15:06:35.079Z" agent="Mozilla/5.0 (Macintosh; Intel Mac OS X 10_15_7) AppleWebKit/537.36 (KHTML, like Gecko) Chrome/126.0.0.0 Safari/537.36" version="24.6.4" etag="a2lElxWEnjdv0l5MYcA4" type="github">
  <diagram name="Page-1" id="D_bAEHiPw8L2ZZIKuskO">
    <mxGraphModel>
      <root>
        <mxCell id="0" />
        <mxCell id="1" parent="0" />
      </root>
    </mxGraphModel>
  </diagram>
</mxfile>
